{
  "accessors": [
    {
      "bufferView": 3,
      "componentType": 5126,
      "count": 1202,
      "max": [
        0.3619300425052643,
        1.5428705215454102,
        0.3226381242275238
      ],
      "min": [
        -0.3619300425052643,
        0.009593077935278416,
        -0.2367590069770813
      ],
      "type": "VEC3"
    },
    {
      "bufferView": 3,
      "byteOffset": 14424,
      "componentType": 5126,
      "count": 1202,
      "max": [
        0.9999945163726807,
        0.9999938011169434,
        0.9999912977218628
      ],
      "min": [
        -0.9999945163726807,
        -0.9999763369560242,
        -1.0
      ],
      "type": "VEC3"
    },
    {
      "bufferView": 2,
      "componentType": 5126,
      "count": 1202,
      "max": [
        0.9623460173606873,
        0.9990234375
      ],
      "min": [
        0.0009765625,
        0.0009765625
      ],
      "type": "VEC2"
    },
    {
      "bufferView": 1,
      "componentType": 5125,
      "count": 3024,
      "type": "SCALAR"
    },
    {
      "bufferView": 5,
      "componentType": 5126,
      "count": 26,
      "max": [
        100.0,
        86.1335678100586,
        95.7009048461914,
        0.0,
        30.053585052490234,
        100.0,
        95.37681579589844,
        0.0,
        99.99356079101563,
        97.86805725097656,
        100.0,
        0.0,
        10.188036918640137,
        58.4416618347168,
        69.956298828125,
        1.0
      ],
      "min": [
        -99.99590301513672,
        -86.1335678100586,
        -95.69261932373047,
        0.0,
        -30.391733169555664,
        -99.99253845214844,
        -85.98834228515625,
        0.0,
        -99.97926330566406,
        -8.03332805633545,
        -6.146604537963867,
        0.0,
        -10.181011199951172,
        -99.31138610839844,
        -7.963756084442139,
        1.0
      ],
      "type": "MAT4"
    },
    {
      "bufferView": 0,
      "componentType": 5123,
      "count": 1202,
      "type": "VEC4"
    },
    {
      "bufferView": 4,
      "componentType": 5126,
      "count": 1202,
      "max": [
        1.0,
        0.488022118806839,
        0.24616080522537231,
        0.16666656732559204
      ],
      "min": [
        0.3999195992946625,
        0.0,
        0.0,
        0.0
      ],
      "type": "VEC4"
    }
  ],
  "asset": {
    "extras": {
      "author": "Mad (https://sketchfab.com/mad1hav)",
      "license": "SKETCHFAB Standard (https://sketchfab.com/licenses)",
      "source": "https://sketchfab.com/3d-models/low-poly-short-character-base-model-6fefa7294e7548d8ae848d282a8f3321",
      "title": "Low Poly Short Character Base Model"
    },
    "generator": "Sketchfab-15.55.0",
    "version": "2.0"
  },
  "bufferViews": [
    {
      "buffer": 0,
      "byteLength": 9616,
      "byteStride": 8,
      "name": "shortBufferViews",
      "target": 34962
    },
    {
      "buffer": 0,
      "byteLength": 12096,
      "byteOffset": 9616,
      "name": "floatBufferViews",
      "target": 34963
    },
    {
      "buffer": 0,
      "byteLength": 9616,
      "byteOffset": 21712,
      "byteStride": 8,
      "name": "floatBufferViews",
      "target": 34962
    },
    {
      "buffer": 0,
      "byteLength": 28848,
      "byteOffset": 31328,
      "byteStride": 12,
      "name": "floatBufferViews",
      "target": 34962
    },
    {
      "buffer": 0,
      "byteLength": 19232,
      "byteOffset": 60176,
      "byteStride": 16,
      "name": "floatBufferViews",
      "target": 34962
    },
    {
      "buffer": 0,
      "byteLength": 1664,
      "byteOffset": 79408,
      "name": "floatBufferViews"
    }
  ],
  "buffers": [
    {
      "byteLength": 81072,
      "uri": "scene.bin"
    }
  ],
  "materials": [
    {
      "doubleSided": true,
      "name": "Material",
      "pbrMetallicRoughness": {
        "baseColorFactor": [
          0.8,
          0.8,
          0.8,
          1.0
        ],
        "metallicFactor": 0.0,
        "roughnessFactor": 0.8211145618000169
      }
    }
  ],
  "meshes": [
    {
      "name": "Cube_Material_0",
      "primitives": [
        {
          "attributes": {
            "JOINTS_0": 5,
            "NORMAL": 1,
            "POSITION": 0,
            "TEXCOORD_0": 2,
            "WEIGHTS_0": 6
          },
          "indices": 3,
          "material": 0,
          "mode": 4
        }
      ]
    }
  ],
  "nodes": [
    {
      "children": [
        1
      ],
      "matrix": [
        1.0,
        0.0,
        0.0,
        0.0,
        0.0,
        2.220446049250313e-16,
        -1.0,
        0.0,
        0.0,
        1.0,
        2.220446049250313e-16,
        0.0,
        0.0,
        0.0,
        0.0,
        1.0
      ],
      "name": "Sketchfab_model"
    },
    {
      "children": [
        2
      ],
      "matrix": [
        0.009999999776482582,
        0.0,
        0.0,
        0.0,
        0.0,
        0.0,
        0.009999999776482582,
        0.0,
        0.0,
        -0.009999999776482582,
        0.0,
        0.0,
        0.0,
        0.0,
        0.0,
        1.0
      ],
      "name": "3ac441e9c8844e7e9dda4b7c74730b7e.fbx"
    },
    {
      "children": [
        3
      ],
      "name": "RootNode"
    },
    {
      "children": [
        4,
        6,
        5
      ],
      "name": "Object_3"
    },
    {
      "children": [
        7
      ],
      "name": "_rootJoint"
    },
    {
      "matrix": [
        100.00000000000001,
        -8.029590827889782e-16,
        -9.932907318146671e-18,
        0.0,
        -9.933038136785963e-18,
        -1.6292067955264302e-05,
        -99.9999999999987,
        0.0,
        8.029590811706918e-16,
        99.9999999999987,
        -1.6292067955264302e-05,
        0.0,
        -8.881784197001252e-16,
        0.0,
        6.661338147750939e-16,
        1.0
      ],
      "name": "Object_5"
    },
    {
      "mesh": 0,
      "name": "Object_6",
      "skin": 0
    },
    {
      "children": [
        8,
        22,
        27
      ],
      "name": "mixamorig:Hips_00",
      "translation": [
        0.0,
        42.9257698059082,
        0.08488861471414566
      ]
    },
    {
      "children": [
        9
      ],
      "name": "mixamorig:Spine_01",
      "rotation": [
        -0.025180509313941002,
        -0.0,
        0.0,
        0.9996829032897949
      ],
      "translation": [
        0.0,
        7.682521820068359,
        -0.38726821541786194
      ]
    },
    {
      "children": [
        10
      ],
      "name": "mixamorig:Spine1_02",
      "rotation": [
        -1.6543651781830704e-08,
        -0.0,
        0.0,
        1.0
      ],
      "translation": [
        0.0,
        8.974324226379395,
        4.440892098500626e-16
      ]
    },
    {
      "children": [
        11,
        14,
        18
      ],
      "name": "mixamorig:Spine2_03",
      "rotation": [
        -3.469446951953614e-18,
        -0.0,
        0.0,
        1.0
      ],
      "translation": [
        0.0,
        10.256368637084961,
        4.440892098500626e-16
      ]
    },
    {
      "children": [
        12
      ],
      "name": "mixamorig:Neck_04",
      "rotation": [
        0.025180524215102196,
        0.0,
        0.0,
        0.9996829032897949
      ],
      "translation": [
        0.0,
        11.538413047790527,
        1.197672219177548e-07
      ]
    },
    {
      "children": [
        13
      ],
      "name": "mixamorig:Head_05",
      "translation": [
        0.0,
        17.973007202148438,
        2.446864604949951
      ]
    },
    {
      "name": "mixamorig:HeadTop_End_06",
      "translation": [
        0.0,
        54.173675537109375,
        7.37526273727417
      ]
    },
    {
      "children": [
        15
      ],
      "name": "mixamorig:LeftShoulder_07",
      "rotation": [
        -0.6012130379676819,
        -0.3579682409763336,
        0.626080334186554,
        -0.34412941336631775
      ],
      "translation": [
        7.5740180015563965,
        6.960528373718262,
        -0.3083011507987976
      ]
    },
    {
      "children": [
        16
      ],
      "name": "mixamorig:LeftArm_08",
      "rotation": [
        0.3634014129638672,
        0.02137616090476513,
        -0.008340716361999512,
        0.93135005235672
      ],
      "translation": [
        0.0,
        17.437454223632813,
        0.0
      ]
    },
    {
      "children": [
        17
      ],
      "name": "mixamorig:LeftForeArm_09",
      "rotation": [
        -0.01812668703496456,
        0.00029703823383897543,
        -0.016381898894906044,
        0.9997014403343201
      ],
      "translation": [
        4.440892098500626e-16,
        19.45989990234375,
        7.105427357601002e-15
      ]
    },
    {
      "name": "mixamorig:LeftHand_010",
      "rotation": [
        4.2717565595928875e-17,
        1.9081958235744878e-17,
        3.8163916471489756e-17,
        1.0
      ],
      "translation": [
        0.0,
        10.400543212890625,
        0.0
      ]
    },
    {
      "children": [
        19
      ],
      "name": "mixamorig:RightShoulder_011",
      "rotation": [
        0.6077612042427063,
        -0.35406365990638733,
        0.6200864911079407,
        0.3475027084350586
      ],
      "translation": [
        -7.5740180015563965,
        6.952731132507324,
        -0.15362487733364105
      ]
    },
    {
      "children": [
        20
      ],
      "name": "mixamorig:RightArm_012",
      "rotation": [
        0.36327362060546875,
        -0.028400104492902756,
        0.01107945665717125,
        0.9311836361885071
      ],
      "translation": [
        4.440892098500626e-16,
        17.437454223632813,
        0.0
      ]
    },
    {
      "children": [
        21
      ],
      "name": "mixamorig:RightForeArm_013",
      "rotation": [
        -0.017279349267482758,
        -0.0007141841924749315,
        0.041290223598480225,
        0.9989975094795227
      ],
      "translation": [
        0.0,
        19.459592819213867,
        0.0
      ]
    },
    {
      "name": "mixamorig:RightHand_014",
      "rotation": [
        -1.325979256949772e-16,
        2.7755575615628914e-17,
        -1.3877787807814457e-16,
        1.0
      ],
      "translation": [
        0.0,
        10.430298805236816,
        7.105427357601002e-15
      ]
    },
    {
      "children": [
        23
      ],
      "name": "mixamorig:LeftUpLeg_015",
      "rotation": [
        0.001097369473427534,
        0.03509421646595001,
        0.9988952875137329,
        -0.03123469464480877
      ],
      "translation": [
        6.703275680541992,
        -4.269798278808594,
        -1.3629738092422485
      ]
    },
    {
      "children": [
        24
      ],
      "name": "mixamorig:LeftLeg_016",
      "rotation": [
        -0.02924504317343235,
        0.0007819478632882237,
        -0.026716802269220352,
        0.9992149472236633
      ],
      "translation": [
        1.7763568394002505e-15,
        17.35918617248535,
        -2.220446049250313e-16
      ]
    },
    {
      "children": [
        25
      ],
      "name": "mixamorig:LeftFoot_017",
      "rotation": [
        0.5014333724975586,
        0.016357550397515297,
        -0.009482449851930141,
        0.8649897575378418
      ],
      "translation": [
        -8.881784197001252e-16,
        12.112894058227539,
        0.0
      ]
    },
    {
      "children": [
        26
      ],
      "name": "mixamorig:LeftToeBase_018",
      "rotation": [
        0.2601397633552551,
        0.1653490513563156,
        -0.0452667698264122,
        0.9502304792404175
      ],
      "translation": [
        0.0,
        16.704294204711914,
        -8.881784197001252e-16
      ]
    },
    {
      "name": "mixamorig:LeftToe_End_019",
      "rotation": [
        4.85722573273506e-17,
        -1.3481509610710651e-33,
        -2.7755575615628914e-17,
        1.0
      ],
      "translation": [
        1.7763568394002505e-15,
        6.525546550750732,
        4.440892098500626e-16
      ]
    },
    {
      "children": [
        28
      ],
      "name": "mixamorig:RightUpLeg_020",
      "rotation": [
        -0.0016080471687018871,
        0.051573384553194046,
        0.9981828331947327,
        0.031123129650950432
      ],
      "translation": [
        -6.703275680541992,
        -4.269798278808594,
        -1.6393235921859741
      ]
    },
    {
      "children": [
        29
      ],
      "name": "mixamorig:RightLeg_021",
      "rotation": [
        -0.05567916855216026,
        -0.0014826544793322682,
        0.026577776297926903,
        0.9980939030647278
      ],
      "translation": [
        1.7763568394002505e-15,
        17.408889770507813,
        4.440892098500626e-16
      ]
    },
    {
      "children": [
        30
      ],
      "name": "mixamorig:RightFoot_022",
      "rotation": [
        0.5108955502510071,
        -0.016125906258821487,
        0.009586093947291374,
        0.8594380617141724
      ],
      "translation": [
        8.881784197001252e-16,
        12.112436294555664,
        -2.7755575615628914e-17
      ]
    },
    {
      "children": [
        31
      ],
      "name": "mixamorig:RightToeBase_023",
      "rotation": [
        0.25884726643562317,
        -0.16366294026374817,
        0.04455074295401573,
        0.9509090185165405
      ],
      "translation": [
        8.881784197001252e-16,
        16.768224716186523,
        0.0
      ]
    },
    {
      "name": "mixamorig:RightToe_End_024",
      "rotation": [
        1.491862189340054e-16,
        -6.678685382510707e-17,
        2.7755575615628914e-17,
        1.0
      ],
      "translation": [
        0.0,
        6.6259765625,
        4.440892098500626e-16
      ]
    }
  ],
  "scene": 0,
  "scenes": [
    {
      "name": "Sketchfab_Scene",
      "nodes": [
        0
      ]
    }
  ],
  "skins": [
    {
      "inverseBindMatrices": 4,
      "joints": [
        4,
        7,
        8,
        9,
        10,
        11,
        12,
        13,
        14,
        15,
        16,
        17,
        18,
        19,
        20,
        21,
        22,
        23,
        24,
        25,
        26,
        27,
        28,
        29,
        30,
        31
      ],
      "skeleton": 4
    }
  ]
}
